<svg width="13" height="16" viewBox="0 0 13 16" fill="none" xmlns="http://www.w3.org/2000/svg">
<path d="M12.434 9.26885C12.3631 9.34161 12.0954 9.65275 11.8461 9.90869C10.3844 11.5183 6.5711 14.153 4.57524 14.9572C4.27214 15.0864 3.50582 15.3599 3.09638 15.3774C2.70406 15.3774 2.33006 15.2871 1.97318 15.1039C1.5283 14.848 1.17142 14.4453 0.975863 13.9698C0.849976 13.6398 0.654424 12.6525 0.654424 12.6349C0.458872 11.5547 0.351318 9.79954 0.351318 7.85994C0.351318 6.01193 0.458872 4.32828 0.61898 3.23176C0.637313 3.2142 0.832866 1.98721 1.04675 1.56692C1.43908 0.799116 2.2054 0.322372 3.02549 0.322372H3.09638C3.63048 0.341191 4.75369 0.817936 4.75369 0.8355C6.64199 1.64095 10.3673 4.14636 11.8645 5.8112C11.8645 5.8112 12.2861 6.23901 12.4694 6.50624C12.7554 6.89015 12.8972 7.36564 12.8972 7.84113C12.8972 8.37182 12.7371 8.86612 12.434 9.26885Z" fill="white"/>
</svg>
