<svg width="13" height="13" viewBox="0 0 13 13" fill="none" xmlns="http://www.w3.org/2000/svg">
<path d="M8.78104 0.250001C9.04638 0.249378 9.25619 0.455525 9.2568 0.730387L9.25742 1.1989C10.9791 1.33384 12.1164 2.507 12.1182 4.3061L12.125 9.57221C12.1275 11.5337 10.8952 12.7406 8.91988 12.7437L4.09493 12.75C2.132 12.7525 0.884264 11.5169 0.881796 9.54972L0.875004 4.34545C0.87254 2.53448 1.96971 1.36444 3.69136 1.2064L3.69074 0.737883C3.69013 0.463021 3.89376 0.25625 4.16528 0.25625C4.43679 0.255625 4.64043 0.461772 4.64105 0.736634L4.64166 1.17392L8.30712 1.16892L8.3065 0.731637C8.30588 0.456774 8.50952 0.250628 8.78104 0.250001ZM9.03281 9.11994H9.02663C8.74278 9.12681 8.51508 9.36481 8.52125 9.65217C8.52186 9.93953 8.7508 10.1763 9.03466 10.1825C9.32407 10.1819 9.55856 9.9439 9.55794 9.6503C9.55794 9.35669 9.32283 9.11994 9.03281 9.11994ZM3.94807 9.12056C3.66421 9.13305 3.44206 9.37106 3.44268 9.65842C3.45564 9.94577 3.69013 10.1707 3.97398 10.1575C4.25229 10.145 4.47382 9.90704 4.46086 9.61969C4.45469 9.33858 4.22575 9.11994 3.94807 9.12056ZM6.49044 9.11744C6.20658 9.13056 5.98505 9.36794 5.98505 9.65529C5.99801 9.94265 6.2325 10.1669 6.51635 10.1544C6.79404 10.1413 7.01619 9.90392 7.00323 9.61594C6.99706 9.33545 6.76812 9.11681 6.49044 9.11744ZM3.94498 6.87169C3.66112 6.88418 3.43959 7.12219 3.44021 7.40954C3.45255 7.6969 3.68766 7.92179 3.97152 7.90867C4.2492 7.89617 4.47073 7.65817 4.45777 7.37081C4.4516 7.0897 4.22328 6.87106 3.94498 6.87169ZM6.48797 6.84982C6.20411 6.86232 5.98196 7.10032 5.98258 7.38768C5.99492 7.67503 6.23003 7.8993 6.51388 7.8868C6.79157 7.87368 7.0131 7.6363 7.00076 7.34895C6.99397 7.06784 6.76565 6.8492 6.48797 6.84982ZM9.03034 6.85294C8.74648 6.85919 8.52433 7.09033 8.52495 7.37768V7.38455C8.53112 7.67191 8.76561 7.88993 9.05008 7.88368C9.32777 7.87681 9.5493 7.6388 9.54313 7.35145C9.53017 7.07658 9.30741 6.85232 9.03034 6.85294ZM8.30835 2.13094L4.6429 2.13593L4.64352 2.64131C4.64352 2.91055 4.4405 3.12294 4.16898 3.12294C3.89747 3.12356 3.69321 2.91179 3.69321 2.64255L3.6926 2.16155C2.48929 2.28211 1.82346 2.98926 1.82531 4.3442L1.82593 4.53848L11.1685 4.52599V4.30735C11.142 2.96427 10.4681 2.25962 9.25866 2.15467L9.25927 2.63568C9.25927 2.9043 9.05008 3.11732 8.78474 3.11732C8.51322 3.11794 8.30897 2.90555 8.30897 2.63693L8.30835 2.13094Z" fill="white"/>
</svg>
