<svg width="12" height="13" viewBox="0 0 12 13" fill="none" xmlns="http://www.w3.org/2000/svg">
<path d="M6.53491 0.0647167L10.8492 1.51224C11.3322 1.6735 11.6587 2.11712 11.6613 2.61429L11.6888 6.93071C11.6973 8.23928 11.2203 9.50833 10.3467 10.5027C9.94488 10.959 9.42989 11.351 8.77223 11.7016L6.45311 12.9413C6.38048 12.9796 6.30064 12.9993 6.22015 13C6.13966 13.0006 6.05918 12.9815 5.98719 12.9439L3.64648 11.7328C2.98163 11.388 2.46205 11.0017 2.05633 10.5517C1.16834 9.56761 0.674939 8.3043 0.666432 6.99382L0.638932 2.68058C0.63633 2.18277 0.956976 1.73596 1.43729 1.56833L5.73526 0.0691785C5.99047 -0.0213313 6.27512 -0.0232435 6.53491 0.0647167ZM8.59804 4.69213C8.405 4.50664 8.09417 4.50792 7.90374 4.69595L5.71419 6.85416L4.81769 5.99241C4.62464 5.80693 4.31447 5.80884 4.12339 5.99687C3.93296 6.1849 3.93493 6.48702 4.12797 6.67251L5.37325 7.8708C5.4701 7.96386 5.59574 8.00976 5.72138 8.00851C5.84703 8.00784 5.97201 7.96068 6.06755 7.86634L8.60196 5.36776C8.79239 5.17973 8.79043 4.87761 8.59804 4.69213Z" fill="#FB9C46"/>
</svg>
