<svg width="10" height="9" viewBox="0 0 10 9" fill="none" xmlns="http://www.w3.org/2000/svg">
<path d="M3.23906 0.567939C3.5143 0.576309 3.78081 0.624368 4.03901 0.712183H4.06479C4.08226 0.720484 4.09537 0.729659 4.10411 0.73796C4.20066 0.768979 4.29197 0.803931 4.37935 0.851989L4.54537 0.926261C4.6109 0.961212 4.68955 1.02631 4.73323 1.05296C4.77692 1.07874 4.82498 1.10539 4.8643 1.13553C5.34969 0.76461 5.93906 0.563639 6.54634 0.567939C6.82202 0.567939 7.09726 0.606892 7.35896 0.694707C8.97154 1.21898 9.5526 2.9884 9.06722 4.535C8.79197 5.32534 8.34197 6.04665 7.7526 6.63602C6.90896 7.45301 5.98319 8.17825 4.98663 8.80301L4.87741 8.86898L4.76382 8.79864C3.76377 8.17825 2.83275 7.45301 1.98124 6.63165C1.39581 6.04228 0.945369 5.32534 0.665757 4.535C0.172067 2.9884 0.753136 1.21898 2.38318 0.685533C2.50988 0.641843 2.64052 0.611261 2.77158 0.594222H2.82401C2.94678 0.576309 3.06867 0.567939 3.191 0.567939H3.23906ZM7.13178 1.94859C6.95265 1.88699 6.75605 1.98354 6.69052 2.16704C6.62935 2.35053 6.72547 2.5515 6.90896 2.6166C7.18901 2.72146 7.37644 2.99713 7.37644 3.30252V3.31607C7.36814 3.41612 7.39828 3.51267 7.45945 3.58694C7.52061 3.66121 7.61236 3.70446 7.70848 3.71364C7.8876 3.70883 8.04052 3.5651 8.05362 3.38116V3.32917C8.06673 2.71709 7.69581 2.16267 7.13178 1.94859Z" fill="#FB9C46"/>
</svg>
