<svg width="12" height="10" viewBox="0 0 12 10" fill="none" xmlns="http://www.w3.org/2000/svg">
<path d="M1.875 0.5C1.57663 0.5 1.29048 0.618526 1.0795 0.829505C0.868526 1.04048 0.75 1.32663 0.75 1.625V8H11.25V1.625C11.25 1.32663 11.1315 1.04048 10.9205 0.829505C10.7095 0.618526 10.4234 0.5 10.125 0.5H1.875ZM0 8.375H12C12 8.67337 11.8815 8.95952 11.6705 9.1705C11.4595 9.38147 11.1734 9.5 10.875 9.5H1.125C0.826631 9.5 0.540483 9.38147 0.329505 9.1705C0.118526 8.95952 0 8.67337 0 8.375H0Z" fill="white"/>
</svg>
