<svg width="12" height="13" viewBox="0 0 12 13" fill="none" xmlns="http://www.w3.org/2000/svg">
<path d="M8.80025 0.165039C10.7496 0.165039 11.8351 1.28834 11.8351 3.2131V9.73203C11.8351 11.6883 10.7496 12.7864 8.80025 12.7864H3.51127C1.59282 12.7864 0.47583 11.6883 0.47583 9.73203V3.2131C0.47583 1.28834 1.59282 0.165039 3.51127 0.165039H8.80025ZM3.68166 8.83591C3.49234 8.81698 3.30933 8.90533 3.20835 9.06941C3.10738 9.22718 3.10738 9.43543 3.20835 9.59951C3.30933 9.75727 3.49234 9.85193 3.68166 9.82669H8.62923C8.88102 9.80145 9.07098 9.58625 9.07098 9.33446C9.07098 9.07572 8.88102 8.86116 8.62923 8.83591H3.68166ZM8.62923 5.95761H3.68166C3.40967 5.95761 3.18942 6.17912 3.18942 6.45048C3.18942 6.72184 3.40967 6.94271 3.68166 6.94271H8.62923C8.90059 6.94271 9.12146 6.72184 9.12146 6.45048C9.12146 6.17912 8.90059 5.95761 8.62923 5.95761ZM5.56792 3.09951H3.68166V3.10582C3.40967 3.10582 3.18942 3.32669 3.18942 3.59805C3.18942 3.86941 3.40967 4.09028 3.68166 4.09028H5.56792C5.83991 4.09028 6.06078 3.86941 6.06078 3.59111C6.06078 3.32038 5.83991 3.09951 5.56792 3.09951Z" fill="#FB9C46"/>
</svg>
